<?xml version="1.0" encoding="utf-8"?>
<svg width="102.1px" height="150.563" viewBox="25.614 483.546 150.6 150.563" xmlns="http://www.w3.org/2000/svg">
  <path id="path40" style="fill-opacity: 1; fill-rule: nonzero; stroke: none; fill: #a5a5ba;" d="M 142.19 511.063 C 139.257 511.269 138.641 511.63 136.981 514.461 C 138.358 514.267 139.276 514.165 140.194 514.002 C 141.869 513.709 142.114 513.334 142.19 511.063 Z M 136.576 573.494 C 136.522 573.995 136.629 574.382 137.295 574.291 C 137.742 574.237 137.903 573.995 138.01 573.606 C 138.002 573.133 137.945 572.735 137.276 572.826 C 136.832 572.885 136.618 573.125 136.576 573.494 Z M 136.924 580.834 C 137.448 580.271 137.448 579.788 136.924 579.372 C 136.4 579.936 136.4 580.418 136.924 580.834 Z M 135.578 564.517 C 134.752 565.295 133.122 565.566 133.818 567.407 C 135.122 567.751 136.021 567.063 136.518 566.049 C 136.912 565.251 135.998 564.966 135.578 564.517 Z M 137.612 609.539 C 140.626 610.66 141.376 610.234 143.066 607.024 C 141 605.039 137.693 605.611 135.237 604.022 C 132.132 606.216 132.132 606.216 132.533 609.542 C 134.228 609.452 135.941 608.92 137.612 609.539 Z M 129.352 613.186 C 129.352 613.763 129.352 614.234 129.352 614.707 C 131.332 614.739 131.332 614.739 132.254 612.751 C 131.252 612.528 130.292 612.591 129.352 613.186 Z M 133.505 511.503 C 132.961 511.129 132.503 510.638 131.983 510.226 C 130.442 509.013 129.47 509.466 128.743 511.637 C 129.329 512.198 129.887 512.731 130.281 513.107 C 131.765 512.899 133.038 512.721 134.316 512.541 C 134.438 512.351 134.56 512.162 134.686 511.973 C 134.289 511.826 133.845 511.738 133.505 511.503 Z M 132.426 581.386 C 130.289 579.808 130.289 579.808 128.629 582.05 C 130.384 583.688 130.43 583.686 132.426 581.386 Z M 131.179 602.576 C 129.871 602.546 128.919 603.043 128.51 604.963 C 129.615 604.807 130.495 604.683 131.696 604.515 C 131.244 603.852 131.883 603.047 131.179 602.576 Z M 127.979 569.975 C 127.952 570.407 127.909 570.754 127.917 571.093 C 127.917 571.311 127.986 571.519 128.074 571.989 C 129.21 571.691 130.407 571.89 131.611 571.143 C 130.988 568.975 129.508 569.507 127.979 569.975 Z M 123.565 567.547 C 123.573 568.211 123.974 568.262 124.468 568.135 C 124.827 568.047 125.11 567.793 125.026 567.385 C 125.068 566.694 124.632 566.641 124.139 566.767 C 123.776 566.857 123.561 567.101 123.565 567.547 Z M 121.396 604.043 C 122.161 604.559 122.85 605.02 123.561 605.494 C 125.385 604.53 126.559 602.606 128.774 600.314 C 125.925 600.159 124.07 600.562 122.537 602.307 C 122.062 602.847 121.274 603.276 121.396 604.043 Z M 117.144 612.748 C 117.026 613.579 116.857 614.594 117.782 614.811 C 119.354 615.179 120.988 615.738 122.869 614.23 C 122.708 611.09 122.054 610.57 119.27 611.463 C 118.536 611.699 117.867 612.302 117.144 612.748 Z M 116.972 505.551 C 116.972 504.733 116.972 503.857 116.972 502.939 C 115.676 503.565 115.431 504.537 115.687 505.545 C 115.798 505.991 116.391 505.919 116.972 505.551 Z M 112.459 620.864 C 113.507 620.468 113.855 619.222 113.251 618.167 C 110.826 617.655 110.271 618.002 108.447 621.306 C 108.91 621.65 109.258 622.163 109.614 622.12 C 110.608 621.996 111.472 621.232 112.459 620.864 Z M 107.713 609.438 C 106.726 609.378 106.03 609.98 105.667 610.759 C 105.2 611.764 105.644 612.536 106.462 613.071 C 108.26 614.252 110.314 614.286 112.493 613.784 C 113.422 611.259 112.987 610.72 111.029 609.63 C 109.866 608.987 108.807 609.514 107.713 609.438 Z M 104.111 506.543 C 106.264 506.617 107.701 506.379 109.503 505.886 C 106.374 504.838 106.374 504.838 104.111 506.543 Z M 90.603 503.658 C 90.262 503.782 89.887 503.789 89.528 503.813 C 88.419 503.897 87.761 504.493 87.508 505.581 C 88.396 507.541 90.281 508.262 91.96 509.277 C 93.253 510.058 94.58 509.562 96.286 509.291 C 95.93 507.461 94.825 506.418 94.542 504.833 C 94.22 503.011 92.89 502.825 90.603 503.658 Z M 83.045 614.73 C 83.496 614.934 83.994 615.158 84.491 615.387 C 85.195 614.718 85.96 613.78 85 612.631 C 83.887 612.756 83.481 613.567 83.045 614.73 Z M 81.733 506.717 C 81.814 505.555 81.057 505.13 80.032 505.17 C 79.229 505.203 78.341 505.202 77.802 506.165 C 77.213 507.226 77.037 508.421 77.844 509.038 C 78.907 509.845 78.98 510.913 78.839 512.107 C 78.728 513.033 79.301 513.442 79.856 513.697 C 81.137 514.282 83.845 512.134 83.914 510.503 C 84.07 509.631 83.7 509.038 83.042 508.507 C 82.472 508.051 81.657 507.765 81.733 506.717 Z M 75.63 584.4 C 73.76 585.623 73.76 585.623 74.161 588.19 C 76.031 586.967 76.031 586.967 75.63 584.4 Z M 73.228 509.231 C 73.266 509.395 73.374 509.537 73.454 509.682 C 73.534 509.594 73.614 509.503 73.71 509.39 C 73.626 509.253 73.542 509.107 73.454 508.963 C 73.374 509.055 73.217 509.177 73.228 509.231 Z M 71.549 532.758 C 71.565 532.443 71.649 532.014 71.484 531.85 C 71.309 531.679 70.777 531.609 70.586 531.754 C 69.912 532.289 70.635 532.409 70.838 532.663 C 70.956 532.823 71.155 532.917 71.316 533.037 L 71.316 533.041 C 71.396 532.945 71.549 532.846 71.549 532.758 Z M 70.421 592.463 C 69.342 595.238 71.236 595.734 73.316 596.374 C 73.84 595.674 74.636 595.306 74.505 594.13 C 73.148 593.82 72.792 591.395 70.421 592.463 Z M 73.66 566.87 C 72.781 566.405 70.62 567.057 69.805 567.939 C 68.551 569.298 68.746 569.213 69.369 571.221 C 69.595 571.951 70.574 572.226 70.233 573.265 C 70.008 573.95 70.708 573.963 71.056 574.281 C 72.41 575.521 73.286 573.761 74.525 573.53 C 74.643 571.65 73.056 570.366 74.49 568.475 C 74.991 567.815 74.242 567.175 73.66 566.87 Z M 69.446 612.98 C 70.15 613.528 70.857 613.379 71.637 612.752 C 72.478 612.072 72.593 611.188 72.326 610.476 C 72.031 609.699 71.442 609.032 70.845 608.459 C 70.211 607.84 69.281 608.495 68.352 608.468 C 67.357 610.18 67.545 611.382 68.685 612.334 C 68.941 612.547 69.182 612.776 69.446 612.98 Z M 68.214 581.094 C 69.14 580.844 68.815 579.919 69.205 579.332 C 70.279 577.724 68.188 576.891 68.773 575.333 C 67.924 575.451 67.362 575.53 66.723 575.621 C 66.723 577.532 66.723 579.364 66.723 581.315 C 67.3 581.234 67.767 581.214 68.214 581.094 Z M 66.65 592.091 C 66.379 591.59 66.145 591.48 65.663 591.564 C 65.116 591.656 64.773 591.719 64.36 592.455 C 63.652 593.716 64.31 594.466 64.355 595.464 C 64.443 597.464 65.082 598.794 67.098 599.199 C 67.924 598.52 68.199 597.422 68.62 596.407 C 67.335 595.279 67.4 593.462 66.65 592.091 Z M 74.513 525.806 C 74.892 522.747 72.49 521.042 71.572 518.326 C 72.589 517.078 74.058 515.877 74.318 514.111 C 73.939 513.515 73.335 513.382 72.635 513.274 C 70.762 512.99 69.358 512.258 68.685 510.234 C 68.153 508.661 66.448 508.15 64.007 507.866 C 65.209 510.294 65.307 512.537 65.128 514.807 C 65.365 514.919 65.556 515.006 65.748 515.094 C 68.593 516.401 68.65 517.023 66.987 520.061 C 66.57 520.822 65.721 521.611 65.878 522.614 C 67.346 524.534 69.641 522.663 71.576 523.129 C 71.545 524.123 72.303 524.763 72.735 525.594 C 73.006 526.106 73.584 526.737 74.513 525.806 Z M 65.243 535.033 C 62.837 534.947 62.68 535.069 62.509 537.07 C 63.981 537.245 64.906 536.63 65.243 535.033 Z M 62.814 531.566 C 63.625 532.254 64.455 532.073 65.239 531.286 C 65.69 530.833 66.317 530.974 66.75 530.366 C 67.385 529.481 67.526 528.631 66.944 527.875 C 66.256 526.986 65.121 526.805 63.977 526.247 C 63.549 527.237 63.201 528.218 62.703 529.134 C 62.179 530.09 62 530.873 62.814 531.566 Z M 67.365 549.814 C 68.444 548.703 68.291 546.686 66.949 546.763 C 64.918 546.881 64.21 545.833 63.461 544.421 C 62.998 543.549 62.046 543.475 61.04 544.038 C 59.533 546.475 60.305 548.891 60.064 551.553 C 62.531 553.569 62.826 553.615 65.338 551.315 C 65.989 550.719 66.768 550.438 67.365 549.814 Z M 52.117 621.222 C 50.985 618.666 50.702 615.883 50.725 612.976 C 50.764 607.686 50.859 602.379 50.695 597.12 C 50.565 592.875 51.827 588.559 51.559 584.306 C 51.486 583.211 52.117 581.852 52.232 580.559 C 52.37 578.956 51.314 577.866 51.387 576.281 C 51.445 574.953 52.121 573.29 50.733 572.349 C 51.073 569.502 50.045 566.755 51.272 563.845 C 51.681 562.861 51.437 561.943 51.44 561.01 C 51.463 548.509 51.445 536.013 51.471 523.51 C 51.475 522.149 51.05 520.759 52.144 519.358 C 52.381 519.054 52.381 518.227 52.144 517.974 C 50.691 516.411 51.907 513.987 50.844 512.175 C 49.956 510.663 51.827 505.662 53.2 503.909 C 53.877 503.041 55.005 502.438 55.081 501.177 C 55.093 500.989 55.322 500.695 55.513 500.593 C 58.091 499.171 59.766 496.485 62.29 495.105 C 64.042 494.147 66.038 493.541 67.939 493.225 C 69.503 492.966 71.285 491.939 72.7 493.167 C 75.248 491.271 78.024 491.983 80.682 491.403 C 83.313 490.826 85.967 490.614 88.614 490.242 C 91.375 489.854 94.14 489.466 96.905 489.077 C 99.548 488.706 102.194 488.25 104.833 488.001 C 106.183 487.873 107.483 487.522 108.937 487.937 C 110.176 488.29 112.027 487.87 113.721 486.989 C 115.794 485.914 118.222 485.821 120.414 485.922 C 123.821 486.086 125.423 485.677 128.923 484.753 C 132.602 483.781 136.404 483.059 140.029 483.953 C 144.217 484.986 147.586 487.313 150.485 490.198 C 151.35 491.059 151.521 492.775 151.663 494.182 C 151.885 496.342 151.782 498.529 152.306 500.669 C 152.642 502.037 153.162 503.865 151.755 505.485 C 152 507.803 151.261 510.151 150.994 512.487 C 150.845 513.797 151.835 514.679 151.759 516.047 C 151.598 519.061 151.709 522.051 151.709 525.482 C 150.772 524.795 149.831 524.889 148.86 525.037 C 145.735 525.514 142.607 526.03 139.49 526.319 C 138.24 526.434 137.321 527.297 136.182 527.569 C 133.589 528.182 131.092 527.993 128.694 527.515 C 127.275 527.233 125.68 527.213 124.628 527.953 C 123.282 528.903 122.123 528.481 120.865 529.082 C 120.123 525.206 122.169 521.285 121.274 517.617 C 120.789 517.337 120.089 517.413 119.568 516.911 C 117.695 515.098 115.178 514.843 112.493 515.003 C 109.943 515.155 107.292 516.415 104.856 515.369 C 102.665 516.997 100.255 516.597 97.942 517.037 C 95.666 517.467 93.372 517.817 91.1 517.975 C 90.048 518.047 89.509 519.121 88.507 519.131 C 87.681 519.137 86.767 519.166 86.002 519.514 C 85.279 519.845 84.743 520.907 84.048 521.109 C 82.95 521.419 82.816 522.769 81.772 522.935 C 80.793 523.087 80.831 524.058 81.068 524.266 C 82.445 525.475 80.995 527.806 82.411 528.969 C 82.594 529.122 82.582 529.69 82.449 529.999 C 81.03 533.262 81.711 536.421 81.833 539.525 C 82.009 544.021 80.824 548.566 80.95 553.057 C 81.011 555.29 82.101 557.171 81.837 559.445 C 82.931 560.098 82.433 561.338 82.445 562.343 C 82.502 566.538 82.338 570.775 82.529 574.947 C 82.617 576.863 81.512 578.628 81.684 580.543 C 81.837 582.212 81.894 583.906 81.137 585.771 C 80.571 587.17 80.919 588.888 81.057 590.418 C 81.191 591.871 80.476 593.498 81.672 594.791 C 82.143 595.298 81.363 597.022 81.837 597.51 C 82.69 598.391 81.99 599.794 82.582 600.346 C 83.707 601.392 84.575 602.632 85.566 603.778 C 86.139 604.431 87.065 604.832 87.7 604.276 C 89.363 602.819 91.15 603.367 92.851 602.895 C 94.913 602.326 97.051 602.806 99.074 601.347 C 99.705 600.892 101.036 600.67 101.502 601.022 C 102.481 601.767 103.636 601.628 104.481 601.172 C 106.003 600.359 107.063 602.275 108.715 600.872 C 109.843 599.914 111.545 600.134 113.033 599.466 C 114.899 598.63 117.075 598.76 119.117 598.474 C 119.576 598.408 120.035 598.344 120.815 598.235 C 120.399 596.912 121.225 595.519 120.161 594.491 C 119.909 594.247 119.813 593.503 120.008 593.186 C 121.274 591.152 120.437 589.212 120.701 587.236 C 120.838 586.207 120.57 585.286 121.259 584.126 C 122.043 582.795 121.255 581.315 120.418 580.438 C 118.93 578.884 117.679 577.141 116.287 575.523 C 115.557 574.67 114.004 574.559 112.822 574.113 C 110.337 573.17 107.843 572.434 105.051 574.455 C 104.692 574.717 104.011 574.801 103.64 574.654 C 101.56 573.834 99.292 574.726 96.951 574.863 C 96.76 573.379 96.867 571.901 96.297 570.523 C 95.918 569.601 95.681 568.101 96.699 566.746 C 97.066 566.258 96.886 565.358 96.886 564.658 C 96.901 560.69 96.837 556.733 96.917 552.755 C 96.958 550.635 95.57 548.918 96.385 546.283 C 97.001 545.699 97.926 544.819 99.25 543.563 C 99.93 543.467 101.269 543.459 102.546 543.062 C 104.952 542.322 107.093 543.558 109.465 542.85 C 110.482 543.981 111.912 542.981 113.128 543.073 C 114.344 543.174 115.457 543.725 116.8 543.273 C 118.337 542.754 119.76 543.09 121.187 543.363 C 123.837 543.863 126.437 544.489 129.199 544.681 C 131.838 544.873 134.671 546.535 136.954 548.365 C 137.792 549.03 138.656 549.662 139.601 550.23 C 144.236 553.013 147.066 557.494 149.548 562.237 C 149.774 565.765 151.323 568.87 151.062 572.609 C 150.753 577.078 150.6 581.604 151.101 585.924 C 151.575 589.98 151.728 594.051 151.682 598.176 C 151.671 599.291 152.221 600.498 151.013 601.608 C 150.837 601.767 150.833 602.468 151.013 602.634 C 152.523 604.028 150.853 606.65 152.417 608.008 C 152.535 608.111 152.489 608.484 152.424 608.707 C 151.105 613.146 150.791 617.558 151.024 621.8 C 150.711 622.043 150.619 622.163 150.523 622.18 C 145.096 623.242 139.654 623.222 134.216 625.092 C 132.296 625.748 129.971 626.491 128.047 625.347 C 125.389 626.056 122.682 625.527 120.023 627.128 C 118.62 627.976 108.44 629.066 106.73 628.22 C 104.489 627.108 103.013 629.044 101.269 629.543 C 98.661 630.291 96.113 630.478 93.532 630.802 C 92.714 629.835 91.539 630.68 90.541 630.614 C 89.199 630.527 87.727 631.599 86.457 630.56 C 85.956 630.15 85.378 631.298 85.007 631.323 C 82.64 631.476 80.399 632.526 78.097 633.067 C 76.785 633.37 75.45 633.511 74.131 633.632 C 72.884 633.746 71.679 634.11 70.406 633.543 C 69.435 633.106 68.023 633.572 66.753 633.38 C 64.872 633.098 62.711 633.81 60.577 634.11 C 59.074 632.907 57.701 631.348 55.919 630.516 C 54.122 629.679 53.089 628.072 51.402 627.135 C 51.727 625.862 50.943 624.63 52.121 623.306 C 52.477 622.903 52.37 621.802 52.117 621.222"/>
</svg>
