<?xml version="1.0" encoding="utf-8"?>
<svg viewBox="0 0 500 500" xmlns="http://www.w3.org/2000/svg">
  <defs>
    <clipPath id="clip-0">
      <rect x="0.413" y="0.098" width="499.284" height="499.33" style="fill: rgb(68, 47, 34); paint-order: fill; fill-rule: nonzero; stroke: rgb(68, 47, 34);"/>
    </clipPath>
  </defs>
  <path id="path96" style="fill: rgb(255, 255, 255); fill-opacity: 1; fill-rule: nonzero; stroke: none; clip-path: url(#clip-0);" d="M 322.364 265.866 C 316.93 272.313 311.075 278.33 304.273 283.372 C 296.235 289.33 287.194 294.28 278.211 298.652 C 269.153 303.063 259.814 306.471 250.114 309.163 C 245.437 310.461 240.827 311.909 235.987 312.492 C 232.631 312.896 229.317 313.382 226.016 313.966 C 233.847 318.151 242.73 319.516 251.619 320.61 C 263.42 322.062 275.108 324.369 286.992 325.12 C 293.259 325.515 299.566 325.529 305.817 324.879 C 311.979 324.239 319.511 323.485 324.471 319.443 C 327.902 316.648 331.826 312.374 333.638 308.327 C 335.517 304.128 334.592 299.266 334.018 294.87 C 330.313 285.133 326.672 275.358 322.364 265.866"/>
  <path id="path98" style="fill: rgb(251, 197, 36); fill-opacity: 1; fill-rule: nonzero; stroke: none; clip-path: url(#clip-0);" d="M 339.348 309.699 C 337.513 314.533 333.503 318.954 329.799 322.476 C 325.176 326.873 319.721 328.479 313.557 329.616 C 306.64 330.89 299.602 331.352 292.574 331.195 C 278.589 330.882 264.88 328.086 251.041 326.371 C 239.406 324.929 227.606 323.145 218.036 315.83 C 217.102 315.115 216.803 314.123 216.863 313.166 C 216.365 311.717 216.824 309.956 218.733 309.48 C 223.581 308.273 228.497 307.495 233.456 306.918 C 238.238 306.362 242.713 305.19 247.335 303.885 C 256.968 301.162 266.249 298.007 275.269 293.616 C 283.906 289.411 292.565 284.664 300.366 279.037 C 307.895 273.609 314.212 266.764 320.058 259.604 C 321.361 258.01 323.15 258.562 324.143 259.836 C 325.177 259.83 326.237 260.263 326.678 261.213 C 331.576 271.75 335.585 282.658 339.713 293.51 C 339.857 293.887 339.883 294.28 339.824 294.663 C 340.467 299.691 341.196 304.83 339.348 309.699 Z M 336.25 186.951 L 328.115 185.333 L 343.451 179.411 C 361.172 172.574 363.793 167.465 369.767 160.933 C 374.413 155.851 376.905 147.453 377.91 145.516 C 367.745 114.62 349.98 97.179 336.837 87.974 C 324.693 79.474 314.184 76.209 310.831 75.316 C 229.431 99.444 186.401 143.638 185.978 144.081 L 183.699 146.453 L 180.969 144.62 C 180.643 144.399 147.946 122.623 120.93 122.623 C 110.738 122.623 102.682 125.784 96.983 132.013 C 88.535 141.246 85.127 151.776 86.852 163.316 C 89.682 182.217 105.266 199.118 119.453 207.483 L 123.849 210.08 L 120.2 213.646 C 119.931 213.912 92.953 240.691 92.953 258.855 C 92.953 262.086 93.907 264.371 95.872 265.842 C 97.991 267.432 101.315 268.239 105.749 268.239 C 110.841 268.239 116.179 269.306 118.432 268.649 L 127.511 266.422 L 122.957 271.761 C 122.861 271.986 113.627 293.99 115.916 315.181 C 115.177 317.298 115.005 316.44 112.218 320.088 C 92.725 325.301 84.313 336.898 81.796 339.594 C 91.017 399.574 138.698 429.016 145.009 432.671 C 164.496 435.349 183.822 436.709 202.448 436.709 C 250.513 436.709 286.723 427.635 308.632 420.023 C 353.854 404.318 374.456 383.353 378.359 370.171 C 387.925 337.897 358.675 276.964 358.381 276.349 L 356.64 272.766 L 360.263 271.097 C 380.588 261.713 392.348 250.117 398.63 242.043 C 403.245 236.108 405.654 231.201 406.765 228.519 C 379.138 191.679 336.677 186.995 336.25 186.951"/>
  <path id="path100" style="fill: rgb(65, 42, 26); fill-opacity: 1; fill-rule: nonzero; stroke: none; clip-path: url(#clip-0);" d="M 241.446 206.494 C 240.988 206.304 240.516 206.144 240.036 205.979 C 239.497 205.776 239.002 205.746 238.565 205.718 L 238.33 205.701 C 237.788 205.663 237.235 205.698 236.808 205.757 L 235.365 205.88 L 234.752 205.988 C 234.082 206.106 233.409 206.226 232.74 206.411 C 232.484 206.492 232.225 206.565 231.967 206.64 C 231.401 206.801 230.837 206.965 230.312 207.174 L 229.605 207.452 C 229.08 207.654 228.554 207.858 228.02 208.095 L 225.877 209.123 C 225.41 209.353 224.965 209.608 224.515 209.858 L 223.805 210.255 C 223.095 210.641 222.406 211.043 221.762 211.468 L 219.801 212.705 C 219.37 212.99 218.949 213.283 218.528 213.58 L 217.924 214.002 C 216.645 214.863 215.429 215.786 214.231 216.702 C 213.045 217.578 211.913 218.504 210.662 219.53 L 206.297 223.23 C 205.462 223.95 204.624 224.677 203.832 225.418 L 200.521 228.453 L 197.315 231.534 C 195.919 232.855 194.57 234.213 193.221 235.575 L 190.971 234.139 C 189.316 233.102 187.643 232.1 185.936 231.124 C 182.913 229.413 179.263 227.452 175.154 225.87 C 173.286 225.169 171.224 224.472 168.748 224.141 L 168.182 224.079 C 166.969 223.932 165.583 223.926 164.533 224.335 C 163.71 224.606 162.89 225.044 162.162 225.604 C 161.42 226.179 160.763 226.985 160.302 227.894 C 159.46 229.692 159.557 231.332 159.707 232.422 C 159.901 233.688 160.297 234.768 160.697 235.752 C 161.083 236.682 161.544 237.604 162.113 238.576 C 162.632 239.452 163.173 240.299 163.752 241.119 L 166.321 244.738 L 165.553 239.781 C 165.435 239.023 165.319 238.277 165.237 237.548 L 165.187 237.021 C 165.114 236.282 165.042 235.555 165.042 234.834 C 165.035 233.92 165.104 233.138 165.254 232.484 C 165.351 232 165.538 231.685 165.476 231.674 C 165.543 231.676 165.615 231.685 165.703 231.695 L 165.802 231.692 C 166.113 231.775 166.485 231.775 166.933 231.742 C 167.193 231.726 167.428 231.691 167.816 231.754 C 169.069 231.916 170.622 232.349 172.429 233.037 C 175.242 234.118 178.331 235.628 182.145 237.793 C 183.748 238.703 185.335 239.658 186.896 240.635 L 189.322 242.184 C 189.016 243.369 188.637 244.886 188.209 246.649 L 186.806 252.348 L 183.464 267.039 C 183.139 268.405 182.875 269.769 182.619 271.089 L 179.683 286.141 L 181.711 286.662 L 186.332 272.206 C 186.742 270.913 187.163 269.583 187.654 268.234 L 194.688 248.69 C 195.458 246.614 196.114 244.885 196.596 243.668 L 196.989 242.66 L 198.622 241.018 C 199.948 239.685 201.273 238.35 202.639 237.051 L 208.993 231.092 C 209.757 230.373 210.547 229.691 211.334 229.009 L 215.735 225.291 C 216.763 224.447 217.789 223.605 218.873 222.811 C 219.993 221.95 221.122 221.093 222.289 220.305 L 222.994 219.817 C 223.338 219.574 223.682 219.332 224.01 219.113 L 225.819 217.974 C 226.382 217.6 226.96 217.264 227.553 216.948 L 228.228 216.57 C 228.598 216.36 228.969 216.15 229.334 215.971 L 231.153 215.095 C 231.514 214.936 231.877 214.793 232.242 214.656 L 232.989 214.359 C 233.337 214.218 233.687 214.122 234.035 214.023 C 234.28 213.954 234.527 213.884 234.729 213.816 C 235.087 213.715 235.438 213.656 235.786 213.596 C 236.019 213.555 236.249 213.513 236.307 213.488 L 236.7 213.463 C 237.075 213.443 237.278 213.392 237.894 213.502 C 238.29 213.529 238.669 213.512 239.047 213.499 L 239.461 213.482 C 240.327 213.53 241.095 213.822 241.816 214.372 C 242.591 214.967 243.338 215.924 243.922 217.075 C 244.549 218.28 245.025 219.577 245.336 220.93 L 246.333 225.229 L 247.374 220.941 C 247.76 219.355 247.891 217.693 247.762 215.988 C 247.575 213.886 247.08 212.213 246.205 210.728 C 245.165 208.906 243.437 207.368 241.446 206.494"/>
  <path id="path102" style="fill: rgb(65, 42, 26); fill-opacity: 1; fill-rule: nonzero; stroke: none; clip-path: url(#clip-0);" d="M 328.421 130.04 L 337.292 132.735 L 329.246 128.128 C 325.115 125.764 320.558 123.787 315.314 122.086 C 310.281 120.462 305.156 119.434 300.105 119.033 C 297.717 118.812 295.318 119.145 293.014 119.476 L 292.042 119.614 C 289.269 120.063 286.619 120.756 284.163 121.687 C 281.442 122.724 279.278 124.066 276.922 125.59 C 275.034 126.837 273.057 128.254 270.699 130.051 C 266.393 133.344 262.41 136.682 259.079 139.511 C 255.302 142.725 251.578 145.985 247.868 149.252 L 241.349 155.014 C 236.234 159.545 230.947 164.226 225.7 168.745 C 221.374 172.468 217.802 175.453 214.46 178.142 C 211.333 180.649 207.195 183.894 202.89 186.77 C 200.598 188.292 198.713 189.405 196.954 190.278 C 195.848 190.823 194.914 191.206 194.091 191.463 C 193.335 191.704 192.693 191.791 192.207 191.812 L 191.854 191.638 L 191.823 191.644 L 189.88 190.733 C 188.822 190.212 187.755 189.662 186.688 189.099 L 185.408 188.386 C 184.763 187.836 184.082 187.229 183.485 186.519 C 182.789 185.699 182.246 184.936 181.818 184.158 C 181.379 183.423 180.983 182.547 180.59 181.437 C 180.216 180.248 179.986 179.286 179.866 178.371 C 179.784 177.866 179.725 177.361 179.7 176.81 C 179.655 176.304 179.63 175.805 179.644 175.257 C 179.623 174.305 179.708 173.358 179.79 172.441 L 179.809 172.229 C 179.93 171.307 180.042 170.425 180.229 169.573 C 180.374 168.741 180.566 167.993 180.747 167.3 C 180.904 166.636 181.067 166.067 181.23 165.582 L 181.713 164.032 L 179.769 163.263 L 179.071 164.711 C 178.824 165.198 178.55 165.799 178.281 166.48 C 177.982 167.171 177.654 167.955 177.376 168.793 C 177.046 169.661 176.769 170.628 176.445 171.805 C 176.199 172.819 175.945 173.867 175.804 174.976 C 175.703 175.581 175.635 176.198 175.601 176.787 C 175.537 177.421 175.514 178.064 175.526 178.681 C 175.507 179.841 175.614 181.121 175.857 182.628 C 175.902 182.856 175.947 183.078 175.994 183.295 C 168.856 179.427 161.282 175.47 153.397 172.221 L 151.968 171.661 C 147.709 169.988 143.303 168.257 138.482 167.848 C 135.344 167.488 132.765 167.443 130.368 167.698 C 127.219 168.023 124.485 168.917 122.24 170.354 L 122.24 170.357 C 122.009 170.48 121.824 170.594 121.608 170.729 C 121.355 170.891 121.11 171.06 120.853 171.245 C 120.369 171.599 119.904 171.985 119.466 172.392 C 118.5 173.303 117.742 174.273 117.219 175.265 C 116.617 176.366 116.243 177.587 116.142 178.792 C 116.045 179.914 116.176 181.089 116.54 182.29 L 119.241 191.26 L 118.589 181.914 C 118.52 180.959 118.61 180.091 118.857 179.331 C 119.101 178.558 119.504 177.849 120.054 177.227 C 120.58 176.627 121.226 176.09 121.967 175.63 C 122.332 175.405 122.71 175.203 123.079 175.035 C 123.275 174.948 123.472 174.862 123.66 174.789 C 123.82 174.732 124.012 174.659 124.132 174.631 L 124.45 174.509 C 126.157 173.797 128.268 173.522 130.563 173.612 C 132.511 173.701 134.6 174.071 137.087 174.754 C 138.384 175.182 139.689 175.591 141.006 176.002 C 144.144 176.979 147.389 177.991 150.507 179.321 C 153.694 180.638 157.066 182.172 160.736 183.984 C 140.558 187.271 135.655 197.982 135.447 198.46 L 134.184 201.351 L 136.924 199.79 C 143.976 195.772 151.246 192.883 158.548 191.189 C 159.073 200.005 162.302 205.028 167.503 205.028 C 169.094 205.028 170.471 204.451 171.604 203.316 C 174.254 200.655 174.947 195.339 175.082 191.531 L 177.068 192.615 C 179.066 193.706 181.073 194.803 183.111 195.883 C 184.222 196.468 185.345 197.05 186.5 197.617 C 187.081 197.904 187.658 198.177 188.303 198.472 L 189.762 199.171 L 189.883 199.101 C 190.231 199.208 190.612 199.295 191.061 199.369 C 193.235 199.644 194.951 199.202 196.372 198.784 C 197.961 198.287 199.329 197.652 200.351 197.157 C 203.021 195.826 205.379 194.32 207.136 193.154 C 211.65 190.139 215.799 186.895 219.263 184.12 C 222.651 181.393 226.284 178.356 230.704 174.555 C 234.801 171.028 238.852 167.462 242.891 163.892 C 247.845 161.74 257.722 158.061 270.055 156.644 C 270.111 161.059 270.803 169.404 274.992 173.643 C 276.686 175.355 278.773 176.225 281.195 176.225 C 283.175 176.225 284.883 175.49 286.276 174.043 C 290.164 170.011 290.6 161.332 290.532 156.719 C 295.481 157.361 300.322 158.474 304.949 160.029 L 308.282 161.151 L 306.105 158.388 C 305.801 158.001 298.378 148.889 277.212 148.889 C 271.12 148.889 264.437 149.659 257.299 151.184 C 259.541 149.221 261.789 147.277 264.049 145.352 C 267.103 142.756 271.146 139.362 275.351 136.145 C 277.584 134.444 279.424 133.125 281.138 131.996 C 282.894 130.848 284.949 129.581 286.865 128.862 C 288.846 128.114 291.002 127.55 293.289 127.182 C 294.558 126.948 295.849 126.885 297.216 126.819 C 298.189 126.772 299.164 126.723 300.12 126.615 C 304.33 126.228 308.922 126.36 314.212 127.028 C 316.608 127.331 319.007 127.741 321.352 128.249 C 323.713 128.729 326.091 129.332 328.421 130.04"/>
  <path id="path104" style="fill: rgb(255, 255, 255); fill-opacity: 1; fill-rule: nonzero; stroke: none; clip-path: url(#clip-0);" d="M 288.733 161.163 C 288.733 164.119 287.248 166.516 285.42 166.516 C 283.59 166.516 282.108 164.119 282.108 161.163 C 282.108 158.209 283.59 155.813 285.42 155.813 C 287.248 155.813 288.733 158.209 288.733 161.163"/>
  <path id="path106" style="fill: rgb(255, 255, 255); fill-opacity: 1; fill-rule: nonzero; stroke: none; clip-path: url(#clip-0);" d="M 173.116 192.463 C 173.116 195.113 171.785 197.259 170.146 197.259 C 168.506 197.259 167.176 195.113 167.176 192.463 C 167.176 189.813 168.506 187.667 170.146 187.667 C 171.785 187.667 173.116 189.813 173.116 192.463"/>
  <path id="path108" style="fill: rgb(68, 47, 34); fill-opacity: 1; fill-rule: nonzero; stroke: none; clip-path: url(#clip-0);" d="M 123.503 359.605 C 126.078 357.298 129.172 355.624 132.316 354.183 C 133.888 353.447 135.537 352.897 137.157 352.277 C 138.817 351.783 140.461 351.199 142.143 350.778 C 143.831 350.386 145.51 349.915 147.221 349.621 L 152.358 348.776 C 155.808 348.444 159.261 348.056 162.729 348.027 C 166.195 347.858 169.656 348.056 173.114 348.173 C 176.567 348.369 180.005 348.781 183.439 349.147 C 186.846 349.72 190.258 350.246 193.65 350.862 C 197.011 351.666 200.375 352.406 203.708 353.262 C 200.287 352.821 196.895 352.261 193.497 351.767 L 183.278 350.577 C 176.444 350.11 169.611 349.602 162.784 349.896 C 155.958 350.017 149.144 350.73 142.478 352.172 C 140.805 352.501 139.173 352.996 137.513 353.4 C 135.897 353.925 134.249 354.399 132.664 355.028 C 129.446 356.168 126.33 357.64 123.503 359.605"/>
  <path id="path110" style="fill: rgb(68, 47, 34); fill-opacity: 1; fill-rule: nonzero; stroke: none; clip-path: url(#clip-0);" d="M 32.844 513.727 C 33.419 513.653 33.991 513.589 34.565 513.508 L 34.459 513.041 C 33.965 513.254 33.378 513.501 32.844 513.727"/>
  <path id="path112" style="fill: rgb(68, 47, 34); fill-opacity: 1; fill-rule: nonzero; stroke: none; clip-path: url(#clip-0);" d="M 56.988 507.669 C 52.822 504.775 53.724 510.636 50.527 511.45 C 52.606 511.186 54.613 510.628 56.408 509.273 C 55.288 508.762 53.91 508.566 56.988 507.669"/>
  <path id="path116" style="fill: rgb(68, 47, 34); fill-opacity: 1; fill-rule: nonzero; stroke: none; clip-path: url(#clip-0);" d="M -10.212 491.612 C -9.158 491.702 -8.389 491.717 -7.714 491.706 C -7.162 491.104 -8.842 489.737 -8.841 488.685 C -9.801 489.453 -10.59 490.357 -10.212 491.612"/>
  <path id="path118" style="fill: rgb(68, 47, 34); fill-opacity: 1; fill-rule: nonzero; stroke: none; clip-path: url(#clip-0);" d="M 45.306 495.804 C 45.831 495.767 46.351 495.727 46.872 495.68 C 46.544 495.327 46.083 495.159 45.283 495.778 C 45.292 495.783 45.296 495.797 45.306 495.804"/>
  <path id="path120" style="fill: rgb(68, 47, 34); fill-opacity: 1; fill-rule: nonzero; stroke: none; clip-path: url(#clip-0);" d="M 58.779 497.496 C 58.749 497.409 58.805 497.327 58.803 497.243 L 58.454 497.325 C 58.564 497.381 58.666 497.487 58.779 497.496"/>
  <path id="path122" style="fill: rgb(68, 47, 34); fill-opacity: 1; fill-rule: nonzero; stroke: none; clip-path: url(#clip-0);" d="M 52.662 508.82 C 49.251 508.528 46.604 510.243 44.009 512.045 C 45.891 511.768 47.843 511.721 49.765 511.532 C 49.428 510.429 52.053 511.431 52.662 508.82"/>
  <path id="path124" style="fill: rgb(68, 47, 34); fill-opacity: 1; fill-rule: nonzero; stroke: none; clip-path: url(#clip-0);" d="M 570.692 440.99 C 570.539 441.934 571 442.455 571.64 442.777 C 574.65 442.316 577.666 442.035 580.695 442.051 C 580.439 440.998 579.9 439.839 579.561 437.432 C 576.765 440.84 574.251 438.744 570.692 440.99"/>
  <path id="path126" style="fill: rgb(68, 47, 34); fill-opacity: 1; fill-rule: nonzero; stroke: none; clip-path: url(#clip-0);" d="M 561.191 421.627 C 562.253 420.958 563.237 420.735 564.514 420.75 C 564.916 422.131 561.741 422.092 561.191 421.627 Z M 579.55 414.514 L 581.505 416.138 C 577.029 418.15 578.153 413.347 572.922 414.209 C 570.993 416.239 565.055 415.486 565.452 418.928 C 565.954 417.787 561.741 416.361 560.17 418.176 C 558.643 421.598 552.699 422.902 554.73 424.065 C 556.357 423.866 558.288 421.824 559.895 423.671 L 556.841 424.784 L 559.155 426.187 C 558.002 425.731 558.347 427.386 559.209 429.824 C 560.444 429.402 561.693 428.964 562.968 428.529 C 562.837 428.516 562.718 428.533 562.58 428.522 L 566.145 426.265 C 563.679 425.783 561.794 423.693 564.916 422.131 C 564.77 423.043 565.884 423.973 564.819 424.649 C 567.205 425.592 572.209 426.112 570.48 423.108 C 566.698 426.74 568.901 419.195 565.909 421.915 C 567.389 419.578 569.288 420.253 570.833 419.078 C 569.338 421.076 571.821 422.956 574.572 423.397 C 575.643 422.718 578.814 422.754 580.594 421.633 C 579.631 419.781 581.124 418.423 577.951 418.388 C 579.013 417.708 580.713 417.046 582.834 417.757 C 582.101 418.207 580.768 418.65 580.967 419.338 C 582.503 420.946 583.981 420.646 584.918 421.292 C 585.557 421.084 586.205 420.892 586.831 420.691 C 586.615 420.549 586.416 420.353 586.256 420.093 L 588.185 418.052 C 585.417 419.397 586.709 417.349 586.579 416.202 C 586.837 418.494 588.493 416.225 589.476 416.002 L 586.962 413.909 C 587.828 412.547 590.902 415.109 590.005 412.801 C 585.285 412.516 583.584 413.187 579.55 414.514"/>
  <path id="path128" style="fill: rgb(68, 47, 34); fill-opacity: 1; fill-rule: nonzero; stroke: none; clip-path: url(#clip-0);" d="M 562.538 444.103 C 556.983 444.398 553.653 442.907 551.27 440.743 C 551.068 440.824 550.838 440.908 550.655 440.987 C 551.294 442.057 550.395 443.227 549.19 444.455 C 550.414 444.645 551.638 444.844 552.853 444.893 L 553.221 444.685 L 553.131 444.888 C 556.745 445.006 560.323 444.59 563.891 444.029 L 563.876 444.03 C 565.47 443.673 565.828 442.283 566.524 441.172 C 565.414 441.244 564.236 440.807 562.984 440.323 C 563.543 442.445 563.613 443.988 562.538 444.103"/>
  <path id="path134" style="fill: rgb(68, 47, 34); fill-opacity: 1; fill-rule: nonzero; stroke: none; clip-path: url(#clip-0);" d="M 640.909 387.946 L 641.125 386.633 C 640.926 387.278 640.87 387.69 640.909 387.946"/>
  <path id="path136" style="fill: rgb(68, 47, 34); fill-opacity: 1; fill-rule: nonzero; stroke: none; clip-path: url(#clip-0);" d="M 704.538 395.595 C 705.249 395.148 707.375 393.801 708.769 394.957 C 706.094 395.842 707.152 395.168 704.538 395.595 Z M 693.494 393.169 L 692.5 393.397 L 694.911 392.27 L 693.494 393.169 Z M 713.237 395.011 C 715.099 394.465 716.632 394.214 718.065 394.048 C 717.634 391.562 717.12 388.975 716.615 386.403 C 716.303 386.431 716.004 386.447 715.585 386.565 C 716.448 390.924 709.058 389.464 705.934 391.033 C 704.378 390.782 708.419 389.457 706.678 388.523 C 704.051 388.946 703.236 391.921 699.942 390.724 C 700.294 390.501 700.015 390.267 700.374 390.05 C 695.843 392.191 699.027 388.846 698.029 387.785 C 700.1 388.334 702.169 386.216 703.797 386.651 C 703.889 386.447 704.046 386.308 704.158 386.129 C 704.147 386.139 704.134 386.144 704.123 386.154 C 704.147 386.05 704.249 385.942 704.364 385.83 C 704.502 385.646 704.6 385.42 704.759 385.259 C 704.771 385.191 704.798 385.124 704.769 385.049 C 702.536 384.214 700.496 386.76 698.443 386.384 L 699.895 385.706 C 700.086 385.085 698.104 385.471 697.105 385.663 C 697.056 385.677 696.994 385.705 696.942 385.722 C 696.247 386.46 695.548 387.19 694.848 387.918 C 695.029 388.032 695.279 388.132 695.697 388.187 L 694.605 388.17 C 691.784 391.084 688.825 393.807 685.131 395.597 C 681.6 395.784 681.497 392.577 682.72 390.984 C 679.101 391.634 680.35 393.705 678.145 395.513 C 680.227 392.562 679.517 393.004 677.709 390.466 C 677.091 390.696 676.518 391.112 675.996 391.594 L 674.109 394.202 C 673.749 394.981 673.565 395.711 673.579 396.284 C 673.787 396.322 673.946 396.319 674.183 396.385 L 674.036 397.296 C 673.71 397.144 673.588 396.761 673.579 396.284 C 673.272 396.228 672.945 396.156 672.701 396.156 L 666.675 404.492 L 670.778 403.449 C 668.684 404.78 666.877 405.459 665.371 406.289 L 664.97 406.85 C 665.787 406.916 666.598 406.983 667.416 407.068 C 667.684 406.906 667.978 406.749 668.348 406.63 C 668.204 406.715 668.114 406.929 668.072 407.142 C 668.336 407.172 668.597 407.211 668.859 407.249 C 670.461 405.054 674.944 402.965 676.131 401.64 C 675.772 401.877 675.396 402.1 675.108 402.353 C 675.536 401.668 675.894 401.445 676.322 400.763 C 676.586 400.987 676.455 401.299 676.131 401.64 C 677.425 400.799 678.905 400.253 680.195 399.974 C 679.296 400.27 678.594 400.782 679.067 401.483 C 681.813 402.207 683.536 405.204 687.598 401.815 L 684.985 402.241 L 690.263 397.262 C 692.576 398.669 687.629 399.748 687.031 401.349 C 691.31 398.649 695.909 403.51 697.505 399.634 C 698.116 401.702 699.135 405.155 702.105 404.505 C 699.588 402.413 703.677 402.694 701.521 400.375 C 702.383 399.012 704.982 400.645 704.922 399.035 L 704.771 399.954 C 710.389 402.545 711.295 397.057 713.237 395.011"/>
  <path id="path138" style="fill: rgb(68, 47, 34); fill-opacity: 1; fill-rule: nonzero; stroke: none; clip-path: url(#clip-0);" d="M 518.169 448.847 C 518.399 449.386 517.697 449.912 516.882 450.429 C 517.787 450.343 518.694 450.232 519.598 450.119 C 519.244 449.372 518.742 448.856 518.169 448.847"/>
  <path id="path140" style="fill: rgb(68, 47, 34); fill-opacity: 1; fill-rule: nonzero; stroke: none; clip-path: url(#clip-0);" d="M -5.019 491.41 C -4.961 491.341 -4.88 491.251 -4.828 491.185 C -5.416 491.138 -5.94 491.347 -6.424 491.637 C -5.891 491.577 -5.439 491.497 -5.019 491.41"/>
  <path id="path142" style="fill: rgb(68, 47, 34); fill-opacity: 1; fill-rule: nonzero; stroke: none; clip-path: url(#clip-0);" d="M -3.413 469.895 C -3.694 470.665 -3.982 471.438 -4.258 472.203 C -3.34 471.914 -3.364 470.771 -3.413 469.895"/>
  <path id="path144" style="fill: rgb(68, 47, 34); fill-opacity: 1; fill-rule: nonzero; stroke: none; clip-path: url(#clip-0);" d="M 711.851 386.056 C 713.193 385.817 714.803 385.628 716.427 385.41 C 716.24 384.467 716.096 383.574 715.898 382.618 C 713.771 382.917 711.822 383.5 710.575 384.565 C 711.248 385.016 711.973 385.33 711.851 386.056"/>
  <path id="path146" style="fill: rgb(68, 47, 34); fill-opacity: 1; fill-rule: nonzero; stroke: none; clip-path: url(#clip-0);" d="M 698.627 424.446 C 698.947 424.405 699.267 424.352 699.587 424.309 C 699.32 424.288 699.064 424.255 698.834 424.176 L 698.627 424.446"/>
  <path id="path148" style="fill: rgb(68, 47, 34); fill-opacity: 1; fill-rule: nonzero; stroke: none; clip-path: url(#clip-0);" d="M 711.753 382.613 C 711.029 382.948 710.373 383.207 709.74 383.445 C 709.881 383.872 710.111 384.214 710.448 384.459 L 711.753 382.613"/>
  <path id="path150" style="fill: rgb(68, 47, 34); fill-opacity: 1; fill-rule: nonzero; stroke: none; clip-path: url(#clip-0);" d="M 712.385 378.583 C 713.112 378.555 714.023 378.457 714.976 378.347 C 714.976 378.346 714.976 378.346 714.976 378.344 C 714.204 378.374 713.349 378.443 712.424 378.537 C 712.413 378.555 712.396 378.566 712.385 378.583"/>
  <path id="path152" style="fill: rgb(68, 47, 34); fill-opacity: 1; fill-rule: nonzero; stroke: none; clip-path: url(#clip-0);" d="M 711.562 379.233 L 711.629 378.617 C 710.487 378.732 709.351 378.825 708.367 378.81 C 707.68 379.498 707.834 379.918 711.562 379.233"/>
  <path id="path154" style="fill: rgb(68, 47, 34); fill-opacity: 1; fill-rule: nonzero; stroke: none; clip-path: url(#clip-0);" d="M 710.222 382.585 C 710.001 382.668 709.785 382.755 709.566 382.83 C 709.565 382.87 709.593 382.882 709.593 382.922 C 709.801 382.805 710.043 382.721 710.222 382.585"/>
  <path id="path156" style="fill: rgb(68, 47, 34); fill-opacity: 1; fill-rule: nonzero; stroke: none; clip-path: url(#clip-0);" d="M 703.432 381.147 L 705.574 379.796 L 705.848 380.023 L 703.432 381.147 Z M 704.168 383.998 C 705.028 384.071 706.077 383.97 707.111 383.776 C 707.893 383.428 708.717 383.12 709.566 382.83 C 709.565 382.742 709.544 382.68 709.565 382.596 C 709.733 382.595 710.001 382.578 710.243 382.558 C 710.71 382.193 711.079 381.769 711.239 381.253 C 706.13 382.46 708.835 379.49 707.683 378.757 C 707.364 378.729 707.066 378.688 706.808 378.621 C 706.338 378.639 705.715 378.746 704.808 379.013 C 705.266 378.829 705.653 378.57 706.035 378.294 C 705.831 378.142 705.668 377.964 705.597 377.728 C 703.213 379.366 701.132 381.362 699.123 383.438 C 700.502 382.976 701.935 382.544 703.393 382.484 C 704.407 381.215 703.866 380.929 706.589 380.203 C 706.273 382.218 701.227 382.422 704.168 383.998"/>
  <path id="path158" style="fill: rgb(68, 47, 34); fill-opacity: 1; fill-rule: nonzero; stroke: none; clip-path: url(#clip-0);" d="M 636.833 412.498 L 636.498 414.559 C 637.087 414.546 637.689 414.535 638.306 414.524 C 637.974 413.662 637.653 412.918 636.833 412.498"/>
  <path id="path160" style="fill: rgb(68, 47, 34); fill-opacity: 1; fill-rule: nonzero; stroke: none; clip-path: url(#clip-0);" d="M 721.553 422.415 C 720.687 422.701 719.777 422.934 718.756 423.036 C 720.328 421.224 713.468 422.291 716.893 418.893 C 713.871 417.943 711.318 419.967 711.433 421.118 C 713.973 421.146 712.359 421.358 714.535 421.61 C 713.326 423.205 710.06 423.622 708.589 422.913 C 709.227 422.923 708.949 422.69 709.024 422.238 C 707.219 421.949 707.1 422.537 706.913 423.251 C 708.043 423.108 709.204 423.094 710.515 423.627 C 714.288 425.159 717.892 424.124 721.602 422.954 C 721.592 422.78 721.564 422.589 721.553 422.415"/>
  <path id="path164" style="fill: rgb(68, 47, 34); fill-opacity: 1; fill-rule: nonzero; stroke: none; clip-path: url(#clip-0);" d="M 590.87 419.447 C 591.775 419.174 592.679 418.899 593.576 418.636 C 593.187 418.417 592.958 418.062 593.066 417.423 C 590.346 417.21 591.121 418.316 590.87 419.447"/>
  <path id="path166" style="fill: rgb(68, 47, 34); fill-opacity: 1; fill-rule: nonzero; stroke: none; clip-path: url(#clip-0);" d="M 610.041 416.09 L 610.864 415.569 C 609.014 415.171 605.971 415.534 603.181 416.34 C 601.155 418.588 594.748 426.691 594.918 427.299 C 595.955 428.686 596.904 426.867 598.455 427.111 L 597.69 425.956 C 602.39 425.671 607.181 425.726 611.689 425.4 C 602.849 421.201 596.589 417.957 610.041 416.09"/>
  <path id="path168" style="fill: rgb(68, 47, 34); fill-opacity: 1; fill-rule: nonzero; stroke: none; clip-path: url(#clip-0);" d="M 642.561 414.347 C 642.448 414.389 642.405 414.418 642.299 414.452 C 642.933 414.446 643.566 414.435 644.229 414.425 C 643.954 414.289 643.453 414.227 642.561 414.347"/>
  <path id="path174" style="fill: rgb(68, 47, 34); fill-opacity: 1; fill-rule: nonzero; stroke: none; clip-path: url(#clip-0);" d="M 618.718 408.555 C 617.981 411.074 614.373 411.712 614.552 414.47 C 614.423 415.203 615.225 415.357 616.113 415.457 C 617.076 415.38 618.106 415.305 619.2 415.234 C 619.182 414.834 619.34 414.431 619.648 414.024 C 618.532 413.84 617.716 413.269 617.904 411.533 C 621.182 414.776 619.98 408.575 623.085 409.073 C 623.746 407.014 619.504 407.654 618.718 408.555"/>
  <path id="path180" style="fill: rgb(68, 47, 34); fill-opacity: 1; fill-rule: nonzero; stroke: none; clip-path: url(#clip-0);" d="M 401.174 463.993 C 401.764 464.208 402.358 464.403 402.945 464.531 C 402.753 464.29 402.543 464.044 402.12 463.742 C 401.769 463.774 401.479 463.897 401.174 463.993"/>
  <path id="path184" style="fill: rgb(68, 47, 34); fill-opacity: 1; fill-rule: nonzero; stroke: none; clip-path: url(#clip-0);" d="M 313.685 475.103 C 313.689 475.087 313.696 475.083 313.7 475.069 L 313.562 475.069 C 313.602 475.076 313.645 475.093 313.685 475.103"/>
  <path id="path186" style="fill: rgb(68, 47, 34); fill-opacity: 1; fill-rule: nonzero; stroke: none; clip-path: url(#clip-0);" d="M 328.581 312.295 C 325.37 317.349 319.545 320.845 311.188 322.764 C 306.562 323.658 301.294 324.152 295.257 324.152 C 284.142 324.154 270.718 322.591 255.35 319.511 C 245.706 317.576 236.455 316.013 227.407 314.629 C 285.322 305.529 312.639 279.452 321.892 268.335 C 328.956 281.563 336.177 300.34 328.581 312.295 Z M 395.492 242.217 C 389.33 250.138 377.797 261.511 357.859 270.715 L 354.306 272.353 L 356.012 275.869 C 356.304 276.469 384.993 336.239 375.611 367.895 C 371.78 380.824 351.572 401.389 307.217 416.792 C 297.974 420.004 286.122 423.478 271.88 426.397 C 253.376 430.068 230.974 432.771 205.02 432.771 C 186.753 432.771 167.805 431.438 148.7 428.811 C 142.512 425.229 95.757 396.359 86.718 337.547 C 89.185 334.904 97.433 327.566 116.545 322.452 C 119.716 321.603 123.064 320.862 126.554 320.211 C 137.442 318.326 149.771 317.36 163.416 317.36 C 188.968 317.36 218.738 320.733 251.903 327.381 C 267.787 330.564 281.721 332.179 293.316 332.179 C 299.254 332.179 304.568 331.709 309.384 330.868 C 322.685 328.917 331.947 323.966 336.968 316.055 C 340.399 310.655 349.388 290.094 322.415 250.795 C 323.156 250.529 323.91 250.278 324.69 250.041 C 326.442 249.443 328.253 248.97 330.002 248.515 L 330.315 248.431 C 330.76 248.345 331.202 248.247 331.645 248.149 C 332.027 248.065 332.393 247.987 332.757 247.914 C 333.155 247.847 333.55 247.776 333.963 247.736 L 335.306 247.573 C 335.542 247.551 335.77 247.54 335.998 247.528 L 337.098 247.46 C 337.354 247.441 337.608 247.422 337.843 247.42 L 339.125 247.432 C 340.6 247.441 342.127 247.585 343.751 247.882 C 344.165 247.922 344.543 248.034 344.913 248.14 C 345.18 248.213 345.441 248.289 345.726 248.347 C 346.174 248.435 346.578 248.59 346.968 248.736 L 347.467 248.915 C 348.232 249.155 348.887 249.474 349.521 249.78 C 349.801 249.915 350.066 250.044 350.256 250.122 C 350.762 250.392 351.185 250.647 351.537 250.861 L 357.059 254 L 355.254 251.565 L 358.962 253.675 L 355.518 249.036 C 355.428 248.925 355.324 248.789 355.212 248.635 C 354.922 248.244 354.563 247.761 354.04 247.225 C 353.868 247.071 353.693 246.897 353.509 246.714 C 352.931 246.145 352.216 245.433 351.216 244.77 C 350.679 244.379 350.073 243.938 349.366 243.58 C 349.178 243.481 348.982 243.377 348.786 243.267 C 348.281 242.986 347.709 242.672 347.128 242.467 C 345.35 241.715 343.504 241.172 341.635 240.856 L 340.141 240.612 C 339.799 240.567 339.451 240.541 339.103 240.515 L 338.617 240.477 C 337.926 240.402 337.233 240.384 336.528 240.384 L 335.384 240.395 C 333.412 240.423 331.265 240.648 328.797 241.083 C 328.653 241.111 328.525 241.162 328.382 241.19 C 327.878 241.266 327.416 241.312 326.884 241.406 C 324.643 241.845 322.461 242.405 320.407 243.071 C 318.446 243.697 316.426 244.473 314.235 245.44 C 312.398 246.247 310.537 247.173 308.553 248.268 C 305.293 250.083 302.153 252.138 299.222 254.381 C 296.533 256.43 294.484 258.317 293.253 259.521 C 292.736 260.012 292.323 260.451 291.996 260.8 L 291.682 261.135 C 291.307 261.536 291.125 261.765 291.125 261.765 L 288.273 265.287 L 290.934 264.049 L 290.196 264.958 L 304.745 258.189 C 305.919 257.648 307.155 257.076 308.47 256.489 C 309.929 255.821 311.467 255.156 313.05 254.472 L 313.377 254.333 C 314.231 255.565 315.601 257.611 317.194 260.176 C 311.157 268.434 278.219 307.594 194.981 310.711 C 168.244 308.45 144.876 308.998 125.69 312.509 C 123.809 312.832 121.975 313.186 120.168 313.562 C 117.943 292.797 126.981 271.255 127.074 271.036 L 130.261 263.577 L 120.491 266.178 C 119.607 266.436 118.251 266.763 116.637 267.067 C 114.644 267.363 112.424 267.582 110.203 267.582 C 105.856 267.582 102.598 266.79 100.516 265.231 C 98.592 263.791 97.657 261.55 97.657 258.381 C 97.657 247.192 117.577 232.131 125.405 222.813 C 121.323 223.592 118.088 224.961 111.47 226.479 L 127.952 210.555 L 123.641 208.009 C 109.728 199.806 94.449 183.235 91.675 164.702 C 89.982 153.388 93.324 143.063 101.607 134.01 C 105.731 129.504 111.122 126.647 117.674 125.452 C 119.419 125.229 121.211 125.082 123.104 125.082 C 149.607 125.082 181.677 146.443 181.997 146.658 L 184.672 148.458 L 185.609 147.482 L 186.633 148.169 L 188.867 145.842 C 189.283 145.41 231.006 102.583 309.923 78.837 C 313.653 79.876 323.499 83.131 334.881 91.098 C 347.774 100.124 365.2 117.234 375.169 147.539 C 374.183 149.438 371.738 153.642 367.18 158.627 C 361.323 165.034 350.685 174.075 333.303 180.785 L 318.262 186.594 L 348.977 192.371 C 343.581 192.371 337.107 196.453 326.552 199.295 C 346.405 199.806 387.455 207.593 403.471 228.953 C 402.381 231.582 400.019 236.398 395.492 242.217 Z M 518.136 -9.181 C 518.8 -8.94 -12.975 -9.166 -12.975 -9.166 C -13.014 -9.629 -17.729 515.055 -19.342 517.945 C -13.455 517.238 516.201 520.042 516.201 520.042"/>
  <path id="path188" style="fill: rgb(68, 47, 34); fill-opacity: 1; fill-rule: nonzero; stroke: none; clip-path: url(#clip-0);" d="M 644.515 386.633 L 646.851 386.661 C 646.218 386.134 645.373 386.28 644.515 386.633"/>
</svg>